<svg width="20" height="26" viewBox="0 0 36 42" fill="none" xmlns="http://www.w3.org/2000/svg">
<path d="M29.7188 0.882812C26.7012 0.882812 24.25 3.33398 24.25 6.35156C24.25 8.68066 25.71 10.6729 27.7656 11.459V12.8066L18 25.3652L8.23438 12.8066V11.459C10.29 10.6729 11.75 8.68066 11.75 6.35156C11.75 3.33398 9.29883 0.882812 6.28125 0.882812C3.26367 0.882812 0.8125 3.33398 0.8125 6.35156C0.8125 8.82227 2.46289 10.917 4.71875 11.5908V13.2705C4.71875 13.7441 4.87988 14.2129 5.17285 14.5889L16.2422 28.8271V30.4678C14.084 31.2002 12.5312 33.2461 12.5312 35.6484C12.5312 38.666 14.9824 41.1172 18 41.1172C21.0176 41.1172 23.4688 38.666 23.4688 35.6484C23.4688 33.2461 21.916 31.2051 19.7578 30.4678V28.8271L30.8271 14.5889C31.1201 14.2129 31.2812 13.7441 31.2812 13.2705V11.5908C33.5371 10.917 35.1875 8.82227 35.1875 6.35156C35.1875 3.33398 32.7363 0.882812 29.7188 0.882812V0.882812ZM3.9375 6.35156C3.95002 5.73825 4.20245 5.15427 4.64063 4.72495C5.0788 4.29563 5.66781 4.05517 6.28125 4.05517C6.89469 4.05517 7.4837 4.29563 7.92187 4.72495C8.36005 5.15427 8.61248 5.73825 8.625 6.35156C8.61248 6.96488 8.36005 7.54885 7.92187 7.97818C7.4837 8.4075 6.89469 8.64796 6.28125 8.64796C5.66781 8.64796 5.0788 8.4075 4.64063 7.97818C4.20245 7.54885 3.95002 6.96488 3.9375 6.35156V6.35156ZM20.3438 35.6484C20.3312 36.2618 20.0788 36.8457 19.6406 37.2751C19.2024 37.7044 18.6134 37.9448 18 37.9448C17.3866 37.9448 16.7976 37.7044 16.3594 37.2751C15.9212 36.8457 15.6688 36.2618 15.6562 35.6484C15.6688 35.0351 15.9212 34.4511 16.3594 34.0218C16.7976 33.5925 17.3866 33.352 18 33.352C18.6134 33.352 19.2024 33.5925 19.6406 34.0218C20.0788 34.4511 20.3312 35.0351 20.3438 35.6484V35.6484ZM29.7188 8.69531C29.1054 8.68279 28.5215 8.43036 28.0921 7.99219C27.6628 7.55401 27.4224 6.96501 27.4224 6.35156C27.4224 5.73812 27.6628 5.14911 28.0921 4.71094C28.5215 4.27276 29.1054 4.02033 29.7188 4.00781C30.3321 4.02033 30.916 4.27276 31.3454 4.71094C31.7747 5.14911 32.0151 5.73812 32.0151 6.35156C32.0151 6.96501 31.7747 7.55401 31.3454 7.99219C30.916 8.43036 30.3321 8.68279 29.7188 8.69531V8.69531Z" fill="#797979"/>
</svg>
