<svg width="20" height="20" viewBox="0 0 44 44" fill="none" xmlns="http://www.w3.org/2000/svg">
<path d="M20.0708 2.48541C20.7375 0.727073 23.2604 0.727073 23.9291 2.48541L28.2416 14.4312C28.3921 14.8204 28.657 15.1547 29.0014 15.3902C29.3459 15.6256 29.7536 15.7511 30.1708 15.75H40.7687C42.7271 15.75 43.5812 18.1875 42.0416 19.3812L34.5 26.1667C34.1621 26.4264 33.9153 26.7864 33.7947 27.1951C33.6742 27.6038 33.6863 28.0402 33.8291 28.4417L36.5833 40.1146C37.2541 41.9896 35.0833 43.6 33.4416 42.4458L23.1979 35.9458C22.8471 35.6993 22.4288 35.567 22 35.567C21.5712 35.567 21.1529 35.6993 20.8021 35.9458L10.5583 42.4458C8.91873 43.6 6.74581 41.9875 7.41664 40.1146L10.1708 28.4417C10.3137 28.0402 10.3257 27.6038 10.2052 27.1951C10.0847 26.7864 9.8378 26.4264 9.49998 26.1667L1.95831 19.3812C0.416643 18.1875 1.27498 15.75 3.22914 15.75H13.8271C14.2443 15.7514 14.6522 15.626 14.9967 15.3906C15.3412 15.1551 15.606 14.8205 15.7562 14.4312L20.0687 2.48541H20.0708Z" stroke="#797979" stroke-width="2" stroke-linecap="round" stroke-linejoin="round"/>
</svg>
